<?xml version="1.0" standalone="no"?>
<!DOCTYPE svg PUBLIC "-//W3C//DTD SVG 20010904//EN"
 "http://www.w3.org/TR/2001/REC-SVG-20010904/DTD/svg10.dtd">
<svg version="1.0" xmlns="http://www.w3.org/2000/svg"
 width="377.000000pt" height="377.000000pt" viewBox="0 0 377.000000 377.000000"
 preserveAspectRatio="xMidYMid meet">
<metadata>
Created by potrace 1.14, written by Peter Selinger 2001-2017
</metadata>
<g transform="translate(0.000000,377.000000) scale(0.100000,-0.100000)"
fill="#000000" stroke="none">
<path d="M1625 3170 l-240 -240 243 -243 242 -242 240 240 240 240 -243 243
-242 242 -240 -240z"/>
<path d="M655 2190 l-240 -240 250 -250 c138 -137 467 -469 731 -737 445 -451
483 -487 499 -473 10 8 333 336 718 728 l700 714 -239 239 c-131 131 -243 239
-249 239 -6 0 -114 -104 -240 -230 l-230 -230 -242 242 -243 243 -238 -238
c-130 -130 -242 -237 -247 -237 -6 0 -116 106 -245 235 -129 129 -237 235
-240 235 -3 0 -113 -108 -245 -240z"/>
</g>
</svg>
